Coordinates
version=1
nRows=20
nColumns=23
inDegrees=yes

Units are S.I. units (second, meters, Newtons, ...)
If the header above contains a line with 'inDegrees', this indicates whether rotational values are in degrees (yes) or radians (no).

endheader
time	pelvis_tilt	pelvis_list	pelvis_rotation	pelvis_tx	pelvis_ty	pelvis_tz	hip_flexion_r	hip_adduction_r	hip_rotation_r	knee_angle_r	knee_angle_r_beta	ankle_angle_r	subtalar_angle_r	mtp_angle_r	hip_flexion_l	hip_adduction_l	hip_rotation_l	knee_angle_l	knee_angle_l_beta	ankle_angle_l	subtalar_angle_l	mtp_angle_l
     15.00000000	     -7.79847325	      3.28938696	     11.93605695	      2.35655748	      0.90118288	      1.00667580	     15.72525311	     -6.30632994	     -7.44012359	    111.70371173	      1.94959756	     -6.94959956	     -9.44808416	      0.00000000	     30.69591707	     11.83493643	     -1.49808049	     47.56720434	      0.83020433	     20.90886759	     -8.93619609	      0.00000000
     15.00666667	     -7.79524306	      2.88716315	     12.00553164	      2.35377571	      0.89780770	      1.00717851	     18.95608710	     -6.47080879	     -6.69906280	    113.97715652	      1.98927665	     -5.94691588	     -8.76536680	      0.00000000	     29.47644058	     11.37534810	     -0.53043800	     49.12728376	      0.85743285	     23.54462126	     -8.80688687	      0.00000000
     15.01333333	     -7.77505795	      2.52154243	     11.99806249	      2.35131111	      0.89509402	      1.00768266	     22.18331355	     -6.61763233	     -5.88431601	    115.79748856	      2.02104744	     -5.09151170	     -8.17595274	      0.00000000	     27.92947209	     10.82117159	      0.27452313	     50.12046171	      0.87476708	     25.72783113	     -8.70698141	      0.00000000
     15.02000000	     -7.78151729	      2.20491147	     11.93595010	      2.34925275	      0.89294004	      1.00819999	     25.41228755	     -6.77639374	     -5.05038000	    117.17584849	      2.04510436	     -4.32358851	     -7.77290532	      0.00000000	     26.13383370	     10.14169145	      0.77299244	     50.60498873	      0.88322367	     27.23311122	     -8.52894703	      0.00000000
     15.02666667	     -8.00415611	      1.87408184	     11.86572984	      2.34759928	      0.89117566	      1.00855193	     28.83308902	     -6.93734052	     -4.26207905	    118.10374753	      2.06129925	     -3.65169420	     -7.34061304	      0.00000000	     24.32334826	      9.39740564	      1.08504355	     50.60541196	      0.88323106	     28.11659914	     -8.08313904	      0.00000000
     15.03333333	     -7.95298875	      1.46582784	     11.95351354	      2.34665695	      0.89055261	      1.00853510	     31.71790053	     -7.03825633	     -3.84837050	    118.40329656	      2.06652737	     -3.26637655	     -7.35435743	      0.00000000	     21.94211925	      8.54845024	      1.58692424	     50.09494154	      0.87432167	     28.49177928	     -7.94431406	      0.00000000
     15.04000000	     -8.26841825	      1.29843507	     11.63203017	      2.34605751	      0.88985831	      1.00880212	     35.05243948	     -7.15554878	     -2.89957907	    118.47430083	      2.06776663	     -2.63152568	     -7.16527685	      0.00000000	     19.77080833	      7.76401568	      1.34300505	     49.23920239	      0.85938620	     28.74394408	     -7.57595805	      0.00000000
     15.04666667	     -8.56550756	      0.94517429	     11.48785089	      2.34613042	      0.88992487	      1.00867549	     38.11738288	     -7.17199492	     -2.41184424	    117.97941526	      2.05912925	     -2.22905661	     -7.07076854	      0.00000000	     17.44022103	      6.76722857	      1.08293650	     48.07446805	      0.83905775	     28.86700200	     -6.29921720	      0.00000000
     15.05333333	     -8.80117881	      0.62191435	     11.23770225	      2.34682656	      0.89074475	      1.00845963	     40.91098134	     -7.07669555	     -1.95182899	    117.02648731	      2.04249752	     -1.95826345	     -7.30640102	      0.00000000	     14.83815933	      5.83015482	      0.84380920	     46.48149598	      0.81125515	     28.81479591	     -5.65456166	      0.00000000
     15.06000000	     -8.84902491	      0.11519482	     10.96955566	      2.34820951	      0.89240362	      1.00817828	     43.23909363	     -6.70539221	     -1.80760499	    115.57309736	      2.01713108	     -1.74600852	     -7.71068971	      0.00000000	     11.97335391	      4.51124598	      0.17188550	     44.66946178	      0.77962918	     28.76135618	     -3.64344935	      0.00000000
     15.06666667	     -8.91894035	     -0.41154307	     10.59963906	      2.35011629	      0.89461665	      1.00786298	     45.37074380	     -6.21817772	     -1.74014002	    113.72230914	      1.98482873	     -1.59406499	     -8.22040081	      0.00000000	      9.00390340	      3.24733223	     -0.53342678	     42.51041652	      0.74194673	     28.41840039	     -1.97997276	      0.00000000
     15.07333333	     -9.03887194	     -0.98749134	     10.04654740	      2.35253667	      0.89722925	      1.00771589	     47.35124288	     -5.47828283	     -1.68263657	    111.50760243	      1.94617480	     -1.49228446	     -8.80843163	      0.00000000	      6.01732926	      1.90617094	     -1.67335779	     40.11620234	      0.70015981	     27.75332058	      0.10551580	      0.00000000
     15.08000000	     -9.38817167	     -1.51421851	      9.41860439	      2.35524069	      0.90004170	      1.00750679	     49.37016861	     -4.78134901	     -1.64170646	    108.99117769	      1.90225491	     -1.47600221	     -9.28839144	      0.00000000	      3.16630410	      0.87371542	     -2.62913403	     37.34059638	      0.65171635	     26.07118211	      1.26546820	      0.00000000
     15.08666667	     -9.46304138	     -2.13386516	      8.65845521	      2.35849539	      0.90356759	      1.00748795	     50.79254776	     -3.79115892	     -1.72323907	    106.07381014	      1.85133724	     -1.47279175	     -9.95825933	      0.00000000	     -0.05429934	     -0.29896413	     -4.04367048	     34.25362304	      0.59783850	     23.23852738	      2.57755018	      0.00000000
     15.09333333	     -9.58063529	     -2.76293608	      7.77974488	      2.36197761	      0.90727029	      1.00762728	     52.04088073	     -2.68595028	     -1.82373267	    102.86580993	      1.79534707	     -1.46971120	    -10.56451546	      0.00000000	     -3.24144154	     -1.31295435	     -5.56735037	     31.00742694	      0.54118169	     19.74930043	      3.67279073	      0.00000000
     15.10000000	     -9.53877269	     -3.37829848	      6.85795295	      2.36573327	      0.91144397	      1.00787494	     52.83397662	     -1.49870206	     -1.95918184	     99.33048521	      1.73364401	     -1.46828104	    -11.20143507	      0.00000000	     -6.71738941	     -1.97463903	     -6.43923933	     27.31524742	      0.47674100	     15.06855273	      2.92993833	      0.00000000
     15.10666667	    -10.02835908	     -3.91249657	      5.89037478	      2.36931231	      0.91480999	      1.00825439	     54.04483984	     -0.41266011	     -2.01699820	     95.62565950	      1.66898261	     -1.44183888	    -11.57906554	      0.00000000	     -9.27554117	     -2.62628599	     -8.25981201	     24.25690084	      0.42336279	     10.43867077	      4.27898832	      0.00000000
     15.11333333	    -10.19189042	     -4.44449345	      4.92549694	      2.37300034	      0.91870923	      1.00875244	     54.61324852	      0.75799012	     -2.10745442	     91.57543916	      1.59829293	     -1.43120761	    -12.07068308	      0.00000000	    -12.24713683	     -2.88932354	     -8.82398759	     20.83204675	      0.36358781	      4.86272688	      3.09904346	      0.00000000
     15.12000000	    -10.76716190	     -4.78858706	      3.98131408	      2.37634650	      0.92187196	      1.00930870	     55.45640134	      1.69301760	     -2.10018038	     87.35499636	      1.52463230	     -1.35513915	    -12.22782737	      0.00000000	    -14.23017223	     -3.18349638	    -10.53008241	     18.48904641	      0.32269474	     -0.00992814	      4.19944481	      0.00000000
     15.12666667	    -11.14129890	     -5.11171022	      3.15581928	      2.37957686	      0.92527629	      1.00988497	     55.79885730	      2.59130280	     -2.12742122	     82.78836486	      1.44492955	     -1.35265899	    -12.47272691	      0.00000000	    -16.33947228	     -3.18454518	    -10.72611798	     16.09860418	      0.28097365	     -5.49813262	      2.97859485	      0.00000000
